<?xml version="1.0" encoding="iso-8859-1"?>
<!-- Generator: Adobe Illustrator 19.0.0, SVG Export Plug-In . SVG Version: 6.00 Build 0)  -->
<svg version="1.1" id="Layer_1" xmlns="http://www.w3.org/2000/svg" xmlns:xlink="http://www.w3.org/1999/xlink" x="0px" y="0px"
	 viewBox="0 0 511.983 511.983" style="enable-background:new 0 0 511.983 511.983;" xml:space="preserve">
<path style="fill:#434A54;" d="M330.646,53.327H181.33c-11.781,0-21.335,9.562-21.335,21.343v42.654
	c0,11.781,9.555,21.344,21.335,21.344h149.316c11.78,0,21.343-9.562,21.343-21.344V74.67
	C351.989,62.888,342.427,53.327,330.646,53.327z M330.646,117.324H181.33V74.67h149.316l0,0V117.324z"/>
<path style="fill:#DA4453;" d="M330.646,53.327H181.33c-11.781,0-21.335,9.562-21.335,21.343v11.766h191.994V74.67
	C351.989,62.888,342.427,53.327,330.646,53.327z"/>
<g>
	<path style="opacity:0.1;fill:#080808;enable-background:new    ;" d="M298.646,63.998c5.906,0,10.688-4.781,10.688-10.671h-21.343
		C287.991,59.217,292.771,63.998,298.646,63.998z"/>
	<path style="opacity:0.1;fill:#080808;enable-background:new    ;" d="M255.992,63.998c5.891,0,10.664-4.781,10.664-10.671h-21.328
		C245.328,59.217,250.101,63.998,255.992,63.998z"/>
	<path style="opacity:0.1;fill:#080808;enable-background:new    ;" d="M213.329,63.998c5.891,0,10.664-4.781,10.664-10.671h-21.335
		C202.658,59.217,207.439,63.998,213.329,63.998z"/>
</g>
<g>
	<path style="fill:#FFCE54;" d="M437.329,127.996h-42.686c-5.875,0-10.656-4.781-10.656-10.672c0-5.89,4.781-10.655,10.656-10.655
		h42.686c5.875,0,10.656,4.766,10.656,10.655C447.985,123.215,443.204,127.996,437.329,127.996z"/>
	<path style="fill:#FFCE54;" d="M117.332,127.996h-42.67c-5.891,0-10.664-4.781-10.664-10.672c0-5.89,4.773-10.655,10.664-10.655
		h42.67c5.891,0,10.664,4.766,10.664,10.655C127.996,123.215,123.223,127.996,117.332,127.996z"/>
</g>
<path style="fill:#965353;" d="M501.327,117.324H10.664C4.774,117.324,0,122.105,0,127.996v319.989
	c0,5.891,4.773,10.672,10.664,10.672h490.663c5.875,0,10.656-4.781,10.656-10.672V127.996
	C511.983,122.105,507.202,117.324,501.327,117.324z"/>
<path style="fill:#FFCE54;" d="M323.865,355.207c-37.483,37.483-98.263,37.483-135.753,0c-37.491-37.498-37.491-98.278,0-135.761
	c37.49-37.499,98.27-37.499,135.753,0C361.362,256.929,361.362,317.709,323.865,355.207z"/>
<path style="fill:#F6BB42;" d="M255.992,393.986c-28.492,0-55.271-11.093-75.419-31.233c-20.148-20.154-31.241-46.935-31.241-75.435
	c0-28.483,11.093-55.264,31.241-75.419c20.148-20.14,46.928-31.232,75.419-31.232c28.499,0,55.279,11.093,75.42,31.232
	c20.14,20.155,31.231,46.936,31.231,75.419c0,28.5-11.092,55.28-31.231,75.435C311.271,382.893,284.491,393.986,255.992,393.986z
	 M255.992,201.994c-22.789,0-44.218,8.874-60.334,24.998c-16.117,16.109-24.999,37.546-24.999,60.326
	c0,22.797,8.882,44.233,24.999,60.343c16.116,16.123,37.545,24.998,60.334,24.998c22.796,0,44.217-8.875,60.342-24.998
	c16.125-16.109,24.999-37.546,24.999-60.343c0-22.78-8.874-44.217-24.999-60.326C300.209,210.868,278.788,201.994,255.992,201.994z"
	/>
<g>
	<path style="fill:#FFCE54;" d="M0.001,127.996v31.999c0,0,42.662,0,42.662-42.671H10.664
		C4.774,117.324,0.001,122.105,0.001,127.996z"/>
	<path style="fill:#FFCE54;" d="M501.327,117.324h-31.998c0,42.671,42.654,42.671,42.654,42.671v-31.999
		C511.983,122.105,507.202,117.324,501.327,117.324z"/>
	<path style="fill:#FFCE54;" d="M10.664,437.313h32.389l-0.391-0.875C42.662,393.767,0,393.767,0,393.767v32.89
		C0.001,432.548,4.774,437.313,10.664,437.313z"/>
	<path style="fill:#FFCE54;" d="M469.329,436.438l-0.125,0.875h32.123c5.875,0,10.656-4.766,10.656-10.656v-32.89
		C511.983,393.767,469.329,393.767,469.329,436.438z"/>
</g>
<g>
	<rect x="74.662" y="117.322" style="fill:#ED5564;" width="42.67" height="341.33"/>
	<rect x="394.642" y="117.322" style="fill:#ED5564;" width="42.686" height="341.33"/>
</g>
<g>
	<path style="fill:#434A54;" d="M271.094,282.912c-0.398,0-0.797-0.031-1.195-0.078l-67.881-7.53
		c-5.852-0.656-10.07-5.938-9.422-11.781c0.648-5.859,5.914-10.077,11.781-9.421l67.881,7.53c5.858,0.656,10.077,5.938,9.421,11.781
		C281.069,278.866,276.46,282.912,271.094,282.912z"/>
	<path style="fill:#434A54;" d="M278.616,350.785c-5.374,0-9.991-4.03-10.601-9.483l-7.539-67.889
		c-0.648-5.844,3.57-11.125,9.422-11.781c5.843-0.641,11.124,3.578,11.78,9.438l7.531,67.873c0.656,5.859-3.562,11.124-9.406,11.78
		C279.397,350.769,278.991,350.785,278.616,350.785z"/>
</g>
<path style="fill:#656D78;" d="M301.24,242.07c-4.156-4.172-10.905-4.172-15.077,0l-57.217,57.217h-25.749
	c-5.891,0-10.664,4.766-10.664,10.656s4.773,10.672,10.664,10.672h19.499v19.499c0,5.891,4.781,10.671,10.671,10.671
	s10.664-4.78,10.664-10.671v-25.749l57.209-57.218C305.412,252.992,305.412,246.242,301.24,242.07z"/>
<path style="opacity:0.1;fill:#080808;enable-background:new    ;" d="M501.327,437.313H10.664C4.774,437.313,0,432.547,0,426.657
	v21.328c0,5.891,4.773,10.672,10.664,10.672h490.663c5.875,0,10.656-4.781,10.656-10.672v-21.328
	C511.983,432.548,507.202,437.313,501.327,437.313z"/>
<g>
</g>
<g>
</g>
<g>
</g>
<g>
</g>
<g>
</g>
<g>
</g>
<g>
</g>
<g>
</g>
<g>
</g>
<g>
</g>
<g>
</g>
<g>
</g>
<g>
</g>
<g>
</g>
<g>
</g>
</svg>
